<svg xmlns="http://www.w3.org/2000/svg">
    <symbol id="facebook" viewBox="0 0 96.124 96.123">
        <g>
            <path d="M72.089,0.02L59.624,0C45.62,0,36.57,9.285,36.57,23.656v10.907H24.037c-1.083,0-1.96,0.878-1.96,1.961v15.803
                c0,1.083,0.878,1.96,1.96,1.96h12.533v39.876c0,1.083,0.877,1.96,1.96,1.96h16.352c1.083,0,1.96-0.878,1.96-1.96V54.287h14.654
                c1.083,0,1.96-0.877,1.96-1.96l0.006-15.803c0-0.52-0.207-1.018-0.574-1.386c-0.367-0.368-0.867-0.575-1.387-0.575H56.842v-9.246
                c0-4.444,1.059-6.7,6.848-6.7l8.397-0.003c1.082,0,1.959-0.878,1.959-1.96V1.98C74.046,0.899,73.17,0.022,72.089,0.02z"/>
        </g>    
    </symbol>

    <symbol id="twitter" viewBox="0 0 512 512">
        <g>
            <path d="M512,97.248c-19.04,8.352-39.328,13.888-60.48,16.576c21.76-12.992,38.368-33.408,46.176-58.016
                c-20.288,12.096-42.688,20.64-66.56,25.408C411.872,60.704,384.416,48,354.464,48c-58.112,0-104.896,47.168-104.896,104.992
                c0,8.32,0.704,16.32,2.432,23.936c-87.264-4.256-164.48-46.08-216.352-109.792c-9.056,15.712-14.368,33.696-14.368,53.056
                c0,36.352,18.72,68.576,46.624,87.232c-16.864-0.32-33.408-5.216-47.424-12.928c0,0.32,0,0.736,0,1.152
                c0,51.008,36.384,93.376,84.096,103.136c-8.544,2.336-17.856,3.456-27.52,3.456c-6.72,0-13.504-0.384-19.872-1.792
                c13.6,41.568,52.192,72.128,98.08,73.12c-35.712,27.936-81.056,44.768-130.144,44.768c-8.608,0-16.864-0.384-25.12-1.44
                C46.496,446.88,101.6,464,161.024,464c193.152,0,298.752-160,298.752-298.688c0-4.64-0.16-9.12-0.384-13.568
                C480.224,136.96,497.728,118.496,512,97.248z"/>
        </g>   
    </symbol>

    <symbol id="gmail" viewBox="0 0 23.952 23.952">
        <g>
            <path d="M18.174,1.157h-2.116l0.709,0.576c0.282,0.234,0.547,0.524,0.802,0.871
                c0.252,0.346,0.468,0.749,0.646,1.205c0.176,0.457,0.266,0.979,0.266,1.566c0,0.562-0.083,1.064-0.252,1.5
                c-0.165,0.438-0.381,0.832-0.643,1.183S17.018,8.723,16.674,9l-1.06,0.811c-0.218,0.216-0.431,0.439-0.645,0.674
                c-0.21,0.231-0.317,0.527-0.317,0.884c0,0.351,0.125,0.633,0.372,0.84c0.251,0.21,0.479,0.376,0.682,0.504l1.223,0.885
                c0.337,0.29,0.653,0.582,0.957,0.878c0.302,0.295,0.574,0.614,0.815,0.957c0.236,0.345,0.427,0.723,0.561,1.136
                c0.135,0.413,0.199,0.888,0.199,1.426c0,0.75-0.182,1.481-0.551,2.188c-0.368,0.709-0.912,1.346-1.638,1.909
                c-0.724,0.564-1.621,1.015-2.691,1.353c-1.073,0.338-2.306,0.507-3.707,0.507c-1.232,0-2.302-0.125-3.207-0.378
                c-0.908-0.252-1.666-0.587-2.271-1.006c-0.605-0.418-1.057-0.895-1.353-1.432c-0.295-0.537-0.44-1.1-0.44-1.691
                c0-0.569,0.182-1.212,0.551-1.933c0.368-0.719,1.042-1.353,2.023-1.899c0.52-0.29,1.076-0.524,1.67-0.709
                c0.592-0.183,1.176-0.324,1.758-0.427c0.582-0.101,1.133-0.173,1.655-0.217c0.52-0.042,0.971-0.075,1.343-0.097
                c-0.231-0.287-0.448-0.592-0.648-0.909c-0.195-0.316-0.294-0.726-0.294-1.231c0-0.268,0.033-0.49,0.099-0.669
                c0.065-0.181,0.137-0.362,0.221-0.543c-0.169,0.021-0.344,0.037-0.527,0.047c-0.186,0.011-0.368,0.018-0.543,0.018
                c-0.906,0-1.704-0.141-2.398-0.429C7.822,10.164,7.228,9.79,6.743,9.33C6.26,8.868,5.895,8.34,5.655,7.743
                C5.41,7.148,5.29,6.544,5.29,5.931c0-0.728,0.179-1.463,0.525-2.209c0.352-0.748,0.882-1.414,1.594-2.004
                c0.978-0.75,1.993-1.224,3.051-1.421C11.515,0.1,12.499,0,13.415,0h6.935L18.174,1.157z M17.354,19.195
                c0-0.389-0.064-0.744-0.196-1.069c-0.131-0.321-0.327-0.633-0.592-0.934c-0.265-0.301-0.639-0.619-1.121-0.955
                c-0.483-0.337-1.03-0.719-1.646-1.149c-0.127-0.043-0.247-0.067-0.354-0.067H13.03c-0.086,0-0.248,0.007-0.489,0.016
                c-0.241,0.011-0.53,0.035-0.868,0.071c-0.337,0.038-0.697,0.089-1.084,0.152c-0.384,0.065-0.752,0.148-1.104,0.256
                c-0.197,0.064-0.452,0.163-0.771,0.296c-0.323,0.131-0.64,0.324-0.956,0.573c-0.317,0.249-0.59,0.568-0.817,0.95
                c-0.233,0.383-0.346,0.845-0.346,1.389c0,0.562,0.134,1.072,0.405,1.531c0.271,0.457,0.668,0.86,1.185,1.213
                c0.512,0.35,1.135,0.616,1.865,0.795c0.726,0.181,1.538,0.271,2.433,0.271c1.62,0,2.837-0.313,3.65-0.941
                S17.354,20.166,17.354,19.195z M14.668,9.079c0.381-0.373,0.615-0.773,0.697-1.2c0.083-0.425,0.124-0.782,0.124-1.067
                c0-0.564-0.086-1.179-0.255-1.846c-0.171-0.664-0.43-1.285-0.774-1.859c-0.347-0.576-0.777-1.059-1.289-1.453
                c-0.521-0.397-1.115-0.592-1.797-0.592c-0.438,0-0.872,0.099-1.298,0.294C9.65,1.553,9.295,1.802,9.021,2.099
                C8.731,2.43,8.539,2.793,8.435,3.185C8.335,3.581,8.284,3.986,8.284,4.4c0,0.521,0.083,1.105,0.244,1.748
                c0.164,0.646,0.419,1.247,0.768,1.813c0.35,0.563,0.785,1.039,1.3,1.42c0.52,0.385,1.135,0.576,1.854,0.576
                c0.423,0,0.834-0.078,1.232-0.24C14.079,9.557,14.41,9.343,14.668,9.079z"/>
        </g>
    </symbol>

    <symbol id="linked" viewBox="0 0 552.77 552.77">
        <g>
            <path d="M17.95,528.854h71.861c9.914,0,17.95-8.037,17.95-17.951V196.8c0-9.915-8.036-17.95-17.95-17.95H17.95
                C8.035,178.85,0,186.885,0,196.8v314.103C0,520.816,8.035,528.854,17.95,528.854z"/>
            <path d="M17.95,123.629h71.861c9.914,0,17.95-8.036,17.95-17.95V41.866c0-9.914-8.036-17.95-17.95-17.95H17.95
                C8.035,23.916,0,31.952,0,41.866v63.813C0,115.593,8.035,123.629,17.95,123.629z"/>
            <path d="M525.732,215.282c-10.098-13.292-24.988-24.223-44.676-32.791c-19.688-8.562-41.42-12.846-65.197-12.846
                c-48.268,0-89.168,18.421-122.699,55.27c-6.672,7.332-11.523,5.729-11.523-4.186V196.8c0-9.915-8.037-17.95-17.951-17.95h-64.192
                c-9.915,0-17.95,8.035-17.95,17.95v314.103c0,9.914,8.036,17.951,17.95,17.951h71.861c9.915,0,17.95-8.037,17.95-17.951V401.666
                c0-45.508,2.748-76.701,8.244-93.574c5.494-16.873,15.66-30.422,30.488-40.649c14.83-10.227,31.574-15.343,50.24-15.343
                c14.572,0,27.037,3.58,37.393,10.741c10.355,7.16,17.834,17.19,22.436,30.104c4.604,12.912,6.904,41.354,6.904,85.33v132.627
                c0,9.914,8.035,17.951,17.949,17.951h71.861c9.914,0,17.949-8.037,17.949-17.951V333.02c0-31.445-1.982-55.607-5.941-72.48
                S535.836,228.581,525.732,215.282z"/>
        </g> 
    </symbol>

    <symbol id="pinterest" viewBox="0 0 438.529 438.529">
        <g>
            <path d="M409.141,109.203c-19.608-33.592-46.205-60.189-79.798-79.796C295.751,9.801,259.065,0,219.281,0
                C179.5,0,142.812,9.801,109.22,29.407c-33.597,19.604-60.194,46.201-79.8,79.796C9.809,142.8,0.008,179.485,0.008,219.267
                c0,44.35,12.085,84.611,36.258,120.767c24.172,36.172,55.863,62.912,95.073,80.232c-0.762-20.365,0.476-37.209,3.709-50.532
                l28.267-119.348c-4.76-9.329-7.139-20.93-7.139-34.831c0-16.175,4.089-29.689,12.275-40.541
                c8.186-10.85,18.177-16.274,29.979-16.274c9.514,0,16.841,3.14,21.982,9.42c5.142,6.283,7.705,14.181,7.705,23.7
                c0,5.896-1.099,13.084-3.289,21.554c-2.188,8.471-5.041,18.273-8.562,29.409c-3.521,11.132-6.045,20.036-7.566,26.692
                c-2.663,11.608-0.476,21.553,6.567,29.838c7.042,8.278,16.372,12.423,27.983,12.423c20.365,0,37.065-11.324,50.107-33.972
                c13.038-22.655,19.554-50.159,19.554-82.514c0-24.938-8.042-45.21-24.129-60.813c-16.085-15.609-38.496-23.417-67.239-23.417
                c-32.161,0-58.192,10.327-78.082,30.978c-19.891,20.654-29.836,45.352-29.836,74.091c0,17.132,4.854,31.505,14.56,43.112
                c3.235,3.806,4.283,7.898,3.14,12.279c-0.381,1.143-1.141,3.997-2.284,8.562c-1.138,4.565-1.903,7.522-2.281,8.851
                c-1.521,6.091-5.14,7.994-10.85,5.708c-14.654-6.085-25.791-16.652-33.402-31.689c-7.614-15.037-11.422-32.456-11.422-52.246
                c0-12.753,2.047-25.505,6.14-38.256c4.089-12.756,10.468-25.078,19.126-36.975c8.663-11.9,19.036-22.417,31.123-31.549
                c12.082-9.135,26.787-16.462,44.108-21.982s35.972-8.28,55.959-8.28c27.032,0,51.295,5.995,72.8,17.986
                c21.512,11.992,37.925,27.502,49.252,46.537c11.327,19.036,16.987,39.403,16.987,61.101c0,28.549-4.948,54.243-14.842,77.086
                c-9.896,22.839-23.887,40.778-41.973,53.813c-18.083,13.042-38.637,19.561-61.675,19.561c-11.607,0-22.456-2.714-32.548-8.135
                c-10.085-5.427-17.034-11.847-20.839-19.273c-8.566,33.685-13.706,53.77-15.42,60.24c-3.616,13.508-11.038,29.119-22.27,46.819
                c20.367,6.091,41.112,9.13,62.24,9.13c39.781,0,76.47-9.801,110.062-29.41c33.595-19.602,60.192-46.199,79.794-79.791
                c19.606-33.599,29.407-70.287,29.407-110.065C438.527,179.485,428.74,142.795,409.141,109.203z"/>
        </g>
    </symbol>   

    <symbol id="desktop" viewBox="0 0 548.172 548.172">
        <g>
            <path d="M534.75,49.965c-8.945-8.945-19.694-13.422-32.261-13.422H45.681c-12.562,0-23.313,4.477-32.264,13.422
                C4.471,58.913,0,69.663,0,82.226v310.633c0,12.566,4.471,23.315,13.417,32.265c8.951,8.945,19.702,13.414,32.264,13.414h155.318
                c0,7.231-1.524,14.661-4.57,22.269c-3.044,7.614-6.09,14.273-9.136,19.981c-3.042,5.715-4.565,9.897-4.565,12.56
                c0,4.948,1.807,9.24,5.424,12.847c3.615,3.621,7.898,5.435,12.847,5.435h146.179c4.949,0,9.233-1.813,12.848-5.435
                c3.62-3.606,5.427-7.898,5.427-12.847c0-2.468-1.526-6.611-4.571-12.415c-3.046-5.801-6.092-12.566-9.134-20.267
                c-3.046-7.71-4.569-15.085-4.569-22.128h155.318c12.56,0,23.309-4.469,32.254-13.414c8.949-8.949,13.422-19.698,13.422-32.265
                V82.226C548.176,69.663,543.699,58.913,534.75,49.965z M511.627,319.768c0,2.475-0.903,4.613-2.711,6.424
                c-1.81,1.804-3.952,2.707-6.427,2.707H45.681c-2.473,0-4.615-0.903-6.423-2.707c-1.807-1.817-2.712-3.949-2.712-6.424V82.226
                c0-2.475,0.902-4.615,2.712-6.423c1.809-1.805,3.951-2.712,6.423-2.712h456.815c2.471,0,4.617,0.904,6.42,2.712
                c1.808,1.809,2.711,3.949,2.711,6.423V319.768L511.627,319.768z"/>
        </g>
    </symbol>   

    <symbol id="coding" viewBox="0 0 511.997 511.997">
        <g>
            <g>
                <path d="M506.76,242.828l-118.4-125.44c-7.277-7.718-19.424-8.07-27.142-0.787c-7.706,7.277-8.064,19.43-0.781,27.142
                    l105.965,112.256L360.437,368.268c-7.283,7.712-6.925,19.859,0.781,27.142c3.712,3.501,8.454,5.235,13.178,5.235
                    c5.101,0,10.195-2.022,13.965-6.01l118.4-125.446C513.742,261.785,513.742,250.226,506.76,242.828z"/>
            </g>
        </g>
        <g>
            <g>
                <path d="M151.566,368.262L45.608,255.999l105.958-112.262c7.277-7.712,6.925-19.866-0.787-27.142
                    c-7.706-7.277-19.866-6.925-27.142,0.787l-118.4,125.44c-6.982,7.398-6.982,18.963,0,26.362L123.643,394.63
                    c3.776,4,8.864,6.016,13.965,6.016c4.723,0,9.466-1.741,13.171-5.242C158.498,388.127,158.843,375.974,151.566,368.262z"/>
            </g>
        </g>
        <g>
            <g>
                <path d="M287.061,52.697c-10.477-1.587-20.282,5.606-21.882,16.083l-56.32,368.64c-1.6,10.483,5.6,20.282,16.083,21.882
                    c0.986,0.147,1.958,0.218,2.925,0.218c9.325,0,17.504-6.803,18.957-16.301l56.32-368.64
                    C304.744,64.095,297.544,54.297,287.061,52.697z"/>
            </g>
        </g>
    </symbol>

    <symbol id="lamp" viewBox="0 0 24 24">
        <g>
            <path d="m13.5 24h-3c-.7 0-1.5-.6-1.5-1.8v-2.1c0-1-.5-1.9-1.3-2.6-1.8-1.4-2.7-3.4-2.7-5.6.1-3.8 3.2-6.8 6.9-6.9 1.9 0 3.7.7 5 2s2.1 3.1 2.1 5c0 2.1-.9 4.1-2.6 5.4-.9.7-1.4 1.8-1.4 2.8v2.3c0 .8-.7 1.5-1.5 1.5zm-1.5-18c-3.2 0-5.9 2.7-6 5.9 0 1.9.8 3.7 2.3 4.8 1.1.9 1.7 2.1 1.7 3.4v2.1c0 .2 0 .8.5.8h3c.3 0 .5-.2.5-.5v-2.3c0-1.3.7-2.7 1.8-3.6 1.4-1.1 2.2-2.8 2.2-4.6 0-1.6-.6-3.1-1.8-4.3-1.1-1.1-2.6-1.7-4.2-1.7z"/>
        </g>
        <g>
            <path d="m14.5 21h-5c-.3 0-.5-.2-.5-.5s.2-.5.5-.5h5c.3 0 .5.2.5.5s-.2.5-.5.5z"/>
        </g>
        <g>
            <path d="m12 3c-.3 0-.5-.2-.5-.5v-2c0-.3.2-.5.5-.5s.5.2.5.5v2c0 .3-.2.5-.5.5z"/>
        </g>
        <g>
            <path d="m18.7 5.8c-.1 0-.3 0-.4-.1-.2-.2-.2-.5 0-.7l1.4-1.4c.2-.2.5-.2.7 0s.2.5 0 .7l-1.4 1.4s-.2.1-.3.1z"/>
        </g>
        <g>
            <path d="m23.5 12.5h-2c-.3 0-.5-.2-.5-.5s.2-.5.5-.5h2c.3 0 .5.2.5.5s-.2.5-.5.5z"/>
        </g>
        <g>
            <path d="m20.1 20.6c-.1 0-.3 0-.4-.1l-1.4-1.4c-.2-.2-.2-.5 0-.7s.5-.2.7 0l1.4 1.4c.2.2.2.5 0 .7 0 .1-.1.1-.3.1z"/>
        </g>
        <g>
            <path d="m3.9 20.6c-.1 0-.3 0-.4-.1-.2-.2-.2-.5 0-.7l1.4-1.4c.2-.2.5-.2.7 0s.2.5 0 .7l-1.4 1.4c-.1.1-.2.1-.3.1z"/>
        </g>
        <g>
            <path d="m2.5 12.5h-2c-.3 0-.5-.2-.5-.5s.2-.5.5-.5h2c.3 0 .5.2.5.5s-.2.5-.5.5z"/>
        </g>
        <g>
            <path d="m5.3 5.8c-.1 0-.3 0-.4-.1l-1.4-1.5c-.2-.2-.2-.5 0-.7s.5-.2.7 0l1.4 1.4c.2.2.2.5 0 .7-.1.1-.2.2-.3.2z"/>
        </g>
        <g>
            <path d="m16 12.5c-.3 0-.5-.2-.5-.5 0-1.9-1.6-3.5-3.5-3.5-.3 0-.5-.2-.5-.5s.2-.5.5-.5c2.5 0 4.5 2 4.5 4.5 0 .3-.2.5-.5.5z"/>
        </g>
    </symbol>     

</svg>